<svg id="svg" version="1.1" xmlns="http://www.w3.org/2000/svg" xmlns:xlink="http://www.w3.org/1999/xlink" width="400" height="400" viewBox="0, 0, 400,400"><g id="svgg"><path id="path0" d="M166.406 223.450 C 163.452 223.529,159.233 223.691,157.031 223.811 C 154.829 223.931,151.331 224.115,149.257 224.220 C 136.807 224.848,130.341 229.255,127.053 239.355 C 125.521 244.062,125.515 244.229,126.247 261.816 C 126.524 268.477,126.840 276.299,126.949 279.199 C 127.284 288.095,127.727 297.083,127.916 298.828 C 128.764 306.681,133.035 311.678,140.519 313.577 L 142.433 314.062 203.320 314.062 L 264.208 314.062 266.122 313.577 C 273.606 311.678,277.876 306.681,278.725 298.828 C 278.914 297.083,279.356 288.095,279.691 279.199 C 279.801 276.299,280.117 268.477,280.394 261.816 C 281.022 246.731,281.031 244.987,280.500 242.676 C 278.043 231.980,272.220 226.178,262.364 224.603 C 260.405 224.290,244.318 223.523,235.827 223.338 C 229.348 223.196,229.808 223.073,229.604 225.000 C 229.089 229.864,226.801 232.911,223.083 233.686 C 220.943 234.133,185.697 234.133,183.558 233.686 C 179.840 232.911,177.552 229.864,177.037 225.000 C 176.824 222.991,177.880 223.145,166.406 223.450 M240.538 242.678 C 243.377 248.289,245.636 251.405,252.685 259.429 C 253.973 260.895,259.888 266.538,261.635 267.969 C 264.314 270.161,264.306 270.136,262.646 271.230 C 261.146 272.219,255.145 277.822,253.049 280.192 C 252.201 281.150,250.916 282.593,250.193 283.398 C 246.228 287.815,242.473 293.244,239.746 298.501 C 238.696 300.525,238.516 300.482,237.050 297.852 C 235.391 294.873,233.440 291.650,232.618 290.527 C 230.275 287.326,229.415 286.219,227.771 284.282 C 223.885 279.706,217.966 273.830,214.711 271.317 C 213.004 269.999,212.966 269.761,214.321 268.862 C 216.763 267.241,223.203 261.040,226.237 257.388 C 227.278 256.135,228.195 255.080,228.274 255.045 C 229.377 254.552,234.648 246.695,237.012 242.020 C 238.656 238.769,238.550 238.750,240.538 242.678 M173.529 251.180 C 184.431 253.542,191.874 261.654,194.356 273.879 C 196.523 284.544,193.367 289.940,184.961 289.941 L 182.324 289.941 180.611 289.118 C 176.866 287.319,175.000 284.186,175.000 279.697 C 175.000 273.406,170.087 269.521,164.812 271.641 C 161.652 272.911,160.439 275.142,159.359 281.671 C 158.951 284.142,158.636 285.464,158.306 286.102 C 155.187 292.118,143.915 291.424,140.873 285.028 C 137.026 276.941,143.645 259.839,152.747 254.350 C 158.249 251.031,166.812 249.725,173.529 251.180 " stroke="none" fill="#fbfbfb" fill-rule="evenodd"></path><path id="path1" d="M237.522 240.997 C 237.080 241.846,236.719 242.660,236.719 242.806 C 236.719 243.175,233.902 247.878,232.715 249.491 C 228.309 255.477,224.607 259.641,218.376 265.621 C 217.496 266.465,215.765 267.864,214.502 268.751 C 213.055 269.767,213.005 270.048,214.132 270.857 C 215.727 272.003,216.398 272.596,222.236 278.027 C 222.814 278.564,224.177 280.057,225.266 281.344 C 226.355 282.632,227.669 284.126,228.185 284.665 C 229.092 285.610,230.692 287.668,232.745 290.527 C 233.969 292.231,235.364 294.575,236.815 297.363 C 238.565 300.728,238.586 300.733,239.940 298.093 C 242.349 293.392,246.186 287.595,248.297 285.467 C 248.607 285.154,249.721 283.880,250.774 282.635 C 254.714 277.974,261.077 271.933,263.193 270.845 C 264.179 270.338,264.110 270.025,262.793 269.046 C 261.276 267.917,256.901 263.875,254.297 261.196 C 250.658 257.452,248.024 254.299,244.336 249.272 C 243.156 247.663,241.041 244.004,240.095 241.932 C 238.687 238.851,238.646 238.836,237.522 240.997 M163.398 251.074 C 154.498 252.096,148.776 255.948,144.429 263.846 C 138.441 274.726,138.398 285.504,144.332 288.572 C 150.996 292.018,157.936 289.563,158.955 283.398 C 159.071 282.700,159.303 281.269,159.471 280.218 C 160.276 275.185,161.738 272.749,164.670 271.558 C 170.232 269.298,175.174 273.188,175.192 279.842 C 175.210 286.447,179.990 290.635,186.586 289.827 C 193.753 288.949,196.359 283.094,194.054 273.047 C 190.492 257.523,178.998 249.284,163.398 251.074 " stroke="none" fill="#090909" fill-rule="evenodd"></path><path id="path2" d="M199.707 65.124 C 189.723 67.111,184.511 76.741,188.282 86.233 C 192.624 97.163,207.769 99.419,215.355 90.267 C 224.839 78.825,214.481 62.183,199.707 65.124 M98.901 82.440 C 87.493 84.347,82.072 97.945,89.128 106.955 C 96.160 115.933,110.861 114.420,115.832 104.206 C 121.406 92.753,111.717 80.297,98.901 82.440 M301.758 82.350 C 284.444 85.691,284.107 109.066,301.321 112.627 C 314.184 115.287,324.512 101.550,318.140 90.259 C 315.015 84.721,307.719 81.199,301.758 82.350 M201.660 112.889 C 201.338 113.099,200.767 113.636,200.391 114.082 C 200.015 114.528,198.999 115.694,198.134 116.675 C 197.269 117.655,193.406 122.061,189.550 126.465 C 178.546 139.033,176.901 140.888,172.773 145.382 C 171.816 146.423,170.893 147.436,170.722 147.632 C 170.550 147.829,169.628 148.840,168.671 149.878 C 167.715 150.917,166.785 151.937,166.605 152.145 C 166.425 152.352,165.405 153.461,164.340 154.609 C 161.935 157.198,161.976 157.153,159.961 159.383 C 159.048 160.393,157.673 161.881,156.905 162.690 C 156.138 163.498,155.127 164.620,154.659 165.182 C 153.416 166.675,153.424 166.678,148.909 163.310 C 145.297 160.615,142.093 158.242,134.961 152.982 C 133.403 151.832,130.283 149.522,128.027 147.846 C 123.950 144.818,120.702 142.410,116.406 139.233 C 115.171 138.320,112.930 136.659,111.426 135.544 C 104.203 130.187,104.137 130.150,103.161 130.921 C 102.033 131.812,102.045 131.227,102.521 162.012 C 102.747 176.621,103.060 197.319,103.216 208.008 C 103.372 218.696,103.552 229.705,103.616 232.471 L 103.733 237.500 103.283 237.499 C 103.035 237.499,101.338 237.759,99.512 238.077 C 97.686 238.395,95.056 238.799,93.669 238.975 C 80.653 240.622,77.971 242.926,78.803 251.744 C 78.961 253.417,79.272 256.982,79.495 259.668 C 79.717 262.354,80.293 268.726,80.774 273.828 C 82.097 287.858,82.198 288.936,82.722 294.727 C 83.551 303.878,84.458 305.761,88.502 306.726 C 89.890 307.057,95.799 307.417,97.461 307.271 C 98.052 307.219,99.906 307.289,101.582 307.426 L 104.629 307.676 104.756 310.607 C 104.826 312.220,104.888 315.832,104.894 318.635 C 104.923 331.808,105.866 334.707,110.627 336.261 L 112.207 336.776 133.105 337.063 C 161.779 337.457,244.862 337.457,273.535 337.063 L 294.434 336.776 296.014 336.261 C 300.775 334.707,301.717 331.808,301.747 318.635 C 301.753 315.832,301.815 312.220,301.885 310.607 L 302.012 307.676 305.059 307.426 C 306.734 307.289,308.589 307.219,309.180 307.271 C 310.842 307.417,316.750 307.057,318.139 306.726 C 322.182 305.761,323.089 303.878,323.918 294.727 C 324.443 288.936,324.543 287.858,325.867 273.828 C 326.348 268.726,326.923 262.354,327.146 259.668 C 327.368 256.982,327.679 253.417,327.837 251.744 C 328.669 242.926,325.987 240.622,312.972 238.975 C 311.584 238.799,308.955 238.395,307.129 238.077 C 305.303 237.759,303.606 237.499,303.358 237.499 L 302.907 237.500 303.024 232.471 C 303.089 229.705,303.269 218.696,303.425 208.008 C 303.581 197.319,303.894 176.621,304.119 162.012 C 304.595 131.227,304.607 131.812,303.480 130.921 C 302.503 130.150,302.438 130.187,295.215 135.544 C 293.711 136.659,291.470 138.320,290.234 139.233 C 285.939 142.410,282.690 144.818,278.613 147.846 C 276.357 149.522,273.237 151.832,271.680 152.982 C 264.548 158.242,261.344 160.615,257.732 163.310 C 253.217 166.678,253.224 166.675,251.981 165.182 C 251.513 164.620,250.503 163.498,249.735 162.690 C 248.968 161.881,247.593 160.390,246.680 159.377 C 245.767 158.364,244.475 156.957,243.809 156.250 C 243.143 155.544,242.440 154.784,242.246 154.562 C 242.053 154.340,241.112 153.309,240.156 152.270 C 239.199 151.231,238.276 150.220,238.105 150.024 C 237.933 149.827,237.002 148.805,236.035 147.752 C 233.813 145.332,234.322 145.891,231.145 142.383 C 228.251 139.186,222.991 133.225,214.946 124.023 C 212.269 120.962,209.371 117.655,208.506 116.675 C 207.641 115.694,206.626 114.527,206.250 114.080 C 204.897 112.473,203.037 111.990,201.660 112.889 M176.708 223.486 C 176.815 223.621,176.963 224.302,177.037 225.000 C 177.552 229.864,179.840 232.911,183.558 233.686 C 185.697 234.133,220.943 234.133,223.083 233.686 C 226.801 232.911,229.089 229.864,229.604 225.000 C 229.808 223.073,229.348 223.196,235.827 223.338 C 244.318 223.523,260.405 224.290,262.364 224.603 C 272.220 226.178,278.043 231.980,280.500 242.676 C 281.031 244.987,281.022 246.731,280.394 261.816 C 280.117 268.477,279.801 276.299,279.691 279.199 C 279.356 288.095,278.914 297.083,278.725 298.828 C 277.876 306.681,273.606 311.678,266.122 313.577 L 264.208 314.062 203.320 314.062 L 142.433 314.062 140.519 313.577 C 133.035 311.678,128.764 306.681,127.916 298.828 C 127.727 297.083,127.284 288.095,126.949 279.199 C 126.840 276.299,126.524 268.477,126.247 261.816 C 125.515 244.229,125.521 244.062,127.053 239.355 C 130.341 229.255,136.807 224.848,149.257 224.220 C 151.331 224.115,154.829 223.931,157.031 223.811 C 160.857 223.603,169.098 223.344,174.146 223.275 C 175.841 223.251,176.570 223.312,176.708 223.486 M236.133 243.750 C 235.914 244.180,235.778 244.531,235.832 244.531 C 235.886 244.531,236.109 244.180,236.328 243.750 C 236.547 243.320,236.683 242.969,236.629 242.969 C 236.575 242.969,236.352 243.320,236.133 243.750 M166.950 250.730 C 167.517 250.770,168.396 250.769,168.903 250.729 C 169.410 250.689,168.945 250.657,167.871 250.657 C 166.797 250.658,166.382 250.691,166.950 250.730 M164.404 250.919 C 164.646 250.966,165.042 250.966,165.283 250.919 C 165.525 250.873,165.327 250.834,164.844 250.834 C 164.360 250.834,164.163 250.873,164.404 250.919 M170.755 250.921 C 171.052 250.966,171.491 250.965,171.731 250.919 C 171.971 250.872,171.729 250.836,171.191 250.837 C 170.654 250.839,170.458 250.877,170.755 250.921 M162.354 251.116 C 162.649 251.161,163.132 251.161,163.428 251.116 C 163.723 251.072,163.481 251.035,162.891 251.035 C 162.300 251.035,162.058 251.072,162.354 251.116 M158.496 251.758 C 157.998 251.972,158.512 251.972,159.180 251.758 C 159.572 251.632,159.591 251.600,159.277 251.596 C 159.063 251.593,158.711 251.665,158.496 251.758 M175.293 251.758 C 175.508 251.850,175.815 251.926,175.977 251.926 C 176.161 251.926,176.125 251.864,175.879 251.758 C 175.664 251.665,175.356 251.590,175.195 251.590 C 175.011 251.590,175.047 251.652,175.293 251.758 M156.676 252.373 C 156.104 252.592,155.670 252.805,155.711 252.846 C 155.784 252.920,157.834 252.189,157.992 252.034 C 158.164 251.863,157.673 251.989,156.676 252.373 M177.441 252.419 C 177.764 252.566,178.247 252.740,178.516 252.806 C 178.908 252.902,178.889 252.873,178.418 252.659 C 178.096 252.512,177.612 252.338,177.344 252.272 C 176.952 252.176,176.971 252.205,177.441 252.419 M154.443 253.334 C 154.041 253.546,153.711 253.764,153.711 253.817 C 153.711 253.904,155.254 253.183,155.452 253.003 C 155.677 252.800,155.091 252.992,154.443 253.334 M179.883 253.408 C 179.883 253.462,180.146 253.642,180.469 253.809 C 180.791 253.975,181.055 254.068,181.055 254.014 C 181.055 253.960,180.791 253.780,180.469 253.613 C 180.146 253.447,179.883 253.354,179.883 253.408 M181.250 254.139 C 181.304 254.202,182.227 254.910,183.301 255.712 C 185.356 257.247,187.697 259.558,188.941 261.279 C 189.348 261.843,189.724 262.305,189.775 262.305 C 190.376 262.305,185.840 257.426,183.789 255.866 C 182.422 254.827,181.028 253.879,181.250 254.139 M151.242 255.343 C 149.543 256.606,146.443 260.008,145.611 261.523 C 145.343 262.012,145.750 261.537,147.116 259.766 C 148.542 257.917,150.449 256.014,151.709 255.183 C 152.463 254.686,152.674 254.492,152.463 254.492 C 152.421 254.492,151.872 254.875,151.242 255.343 M248.633 254.944 C 248.633 254.978,248.918 255.263,249.268 255.579 L 249.902 256.152 249.329 255.518 C 248.794 254.926,248.633 254.793,248.633 254.944 M226.742 256.787 C 225.590 258.078,225.329 258.398,225.431 258.398 C 225.490 258.398,225.951 257.915,226.456 257.324 C 227.391 256.230,227.615 255.809,226.742 256.787 M249.805 256.311 C 249.805 256.345,250.090 256.630,250.439 256.946 L 251.074 257.520 250.501 256.885 C 249.966 256.293,249.805 256.160,249.805 256.311 M224.503 259.424 L 223.730 260.254 224.561 259.482 C 225.333 258.764,225.480 258.594,225.333 258.594 C 225.301 258.594,224.927 258.967,224.503 259.424 M76.896 261.613 C 76.956 262.682,77.076 264.001,77.163 264.542 C 77.370 265.843,77.176 262.484,76.949 260.840 C 76.826 259.952,76.814 260.139,76.896 261.613 M329.520 262.253 C 329.278 264.920,329.250 265.542,329.377 265.413 C 329.499 265.290,329.940 259.953,329.837 259.850 C 329.787 259.800,329.645 260.882,329.520 262.253 M145.070 262.354 C 144.649 262.996,143.676 264.975,143.893 264.746 C 144.123 264.504,145.527 261.914,145.429 261.914 C 145.390 261.914,145.228 262.112,145.070 262.354 M256.641 263.574 C 257.549 264.487,258.336 265.234,258.390 265.234 C 258.444 265.234,257.744 264.487,256.836 263.574 C 255.928 262.661,255.140 261.914,255.087 261.914 C 255.033 261.914,255.732 262.661,256.641 263.574 M190.014 262.793 C 190.119 263.008,190.349 263.359,190.524 263.574 L 190.842 263.965 190.650 263.574 C 190.545 263.359,190.315 263.008,190.140 262.793 L 189.822 262.402 190.014 262.793 M220.014 263.916 L 218.652 265.332 220.068 263.970 C 221.384 262.705,221.574 262.500,221.430 262.500 C 221.401 262.500,220.763 263.137,220.014 263.916 M191.229 264.941 C 191.229 265.049,191.440 265.532,191.699 266.016 C 191.958 266.499,192.170 266.807,192.170 266.699 C 192.170 266.592,191.958 266.108,191.699 265.625 C 191.440 265.142,191.229 264.834,191.229 264.941 M142.610 267.098 C 142.283 267.816,142.345 267.970,142.699 267.317 C 142.864 267.012,142.963 266.726,142.918 266.681 C 142.873 266.636,142.735 266.824,142.610 267.098 M192.299 267.383 C 192.371 267.651,192.512 268.003,192.611 268.164 C 192.737 268.368,192.752 268.308,192.661 267.969 C 192.590 267.700,192.449 267.349,192.350 267.188 C 192.224 266.984,192.209 267.043,192.299 267.383 M261.133 267.676 C 261.497 268.052,261.839 268.359,261.893 268.359 C 261.947 268.359,261.693 268.052,261.328 267.676 C 260.964 267.300,260.622 266.992,260.568 266.992 C 260.514 266.992,260.768 267.300,261.133 267.676 M141.919 268.746 C 141.478 269.847,141.546 270.011,142.010 268.966 C 142.220 268.493,142.356 268.072,142.314 268.030 C 142.271 267.987,142.094 268.310,141.919 268.746 M192.887 268.994 C 193.261 270.176,193.723 271.364,193.736 271.181 C 193.755 270.899,192.956 268.555,192.840 268.555 C 192.789 268.555,192.810 268.752,192.887 268.994 M166.846 271.038 C 167.141 271.083,167.625 271.083,167.920 271.038 C 168.215 270.994,167.974 270.957,167.383 270.957 C 166.792 270.957,166.550 270.994,166.846 271.038 M140.932 271.596 C 140.860 271.882,140.839 272.154,140.885 272.200 C 140.931 272.246,141.027 272.050,141.099 271.763 C 141.171 271.477,141.192 271.205,141.146 271.159 C 141.100 271.113,141.004 271.310,140.932 271.596 M165.137 271.380 C 164.382 271.725,164.733 271.730,165.625 271.387 C 166.001 271.242,166.177 271.121,166.016 271.117 C 165.854 271.114,165.459 271.232,165.137 271.380 M163.761 271.931 C 162.933 272.423,162.092 273.142,161.781 273.623 C 161.594 273.913,161.814 273.769,162.310 273.276 C 162.778 272.812,163.474 272.266,163.856 272.064 C 164.238 271.862,164.463 271.696,164.355 271.695 C 164.248 271.694,163.981 271.800,163.761 271.931 M172.084 272.607 C 172.652 273.118,173.365 273.926,173.668 274.403 C 173.971 274.881,174.219 275.182,174.219 275.073 C 174.219 274.688,172.858 272.965,172.050 272.326 C 170.871 271.392,170.888 271.532,172.084 272.607 M258.686 274.463 L 257.324 275.879 258.740 274.517 C 260.055 273.252,260.245 273.047,260.102 273.047 C 260.072 273.047,259.435 273.684,258.686 274.463 M160.569 275.803 C 160.448 276.148,160.384 276.465,160.426 276.506 C 160.468 276.548,160.600 276.300,160.720 275.955 C 160.841 275.610,160.905 275.293,160.863 275.251 C 160.822 275.210,160.689 275.458,160.569 275.803 M174.249 275.488 C 174.249 275.596,174.367 275.991,174.512 276.367 C 174.657 276.743,174.778 276.919,174.781 276.758 C 174.784 276.597,174.666 276.201,174.519 275.879 C 174.371 275.557,174.250 275.381,174.249 275.488 M194.787 277.441 C 194.788 278.086,194.825 278.326,194.868 277.975 C 194.912 277.624,194.911 277.097,194.866 276.803 C 194.822 276.510,194.786 276.797,194.787 277.441 M222.647 278.613 C 224.729 280.858,225.217 281.325,224.075 279.980 C 223.527 279.336,222.656 278.413,222.139 277.930 C 221.622 277.446,221.851 277.754,222.647 278.613 M139.718 279.199 C 139.717 280.166,139.750 280.586,139.791 280.133 C 139.832 279.680,139.833 278.889,139.792 278.375 C 139.752 277.862,139.718 278.232,139.718 279.199 M254.192 278.760 L 253.223 279.785 254.248 278.816 C 255.201 277.915,255.363 277.734,255.217 277.734 C 255.186 277.734,254.725 278.196,254.192 278.760 M175.067 279.785 C 175.068 280.645,175.102 280.972,175.143 280.512 C 175.185 280.053,175.184 279.350,175.142 278.950 C 175.100 278.550,175.066 278.926,175.067 279.785 M194.986 279.980 C 194.987 280.732,195.022 281.016,195.064 280.611 C 195.107 280.206,195.106 279.590,195.063 279.244 C 195.020 278.897,194.985 279.229,194.986 279.980 M252.432 280.713 L 251.660 281.543 252.490 280.771 C 253.262 280.053,253.410 279.883,253.262 279.883 C 253.230 279.883,252.857 280.256,252.432 280.713 M194.772 282.031 C 194.772 282.407,194.812 282.561,194.861 282.373 C 194.910 282.185,194.910 281.877,194.861 281.689 C 194.812 281.501,194.772 281.655,194.772 282.031 M175.424 282.910 C 175.421 283.125,175.494 283.477,175.586 283.691 C 175.800 284.189,175.800 283.676,175.586 283.008 C 175.460 282.615,175.428 282.596,175.424 282.910 M140.439 284.039 C 140.364 285.250,143.842 289.071,145.009 289.061 C 145.122 289.060,144.775 288.804,144.238 288.493 C 142.934 287.736,141.771 286.486,141.045 285.059 C 140.717 284.414,140.444 283.955,140.439 284.039 M175.781 284.254 C 175.781 284.464,176.362 285.547,176.475 285.547 C 176.529 285.547,176.427 285.261,176.250 284.912 C 175.887 284.199,175.781 284.051,175.781 284.254 M193.787 285.068 C 193.198 286.279,193.264 286.449,193.870 285.284 C 194.141 284.763,194.329 284.303,194.289 284.263 C 194.248 284.222,194.022 284.584,193.787 285.068 M158.231 285.848 C 157.810 286.809,156.625 288.126,155.556 288.821 C 155.347 288.957,155.455 288.936,155.796 288.775 C 156.929 288.239,158.981 285.591,158.751 284.960 C 158.718 284.869,158.484 285.269,158.231 285.848 M176.713 286.043 C 177.010 286.607,178.728 288.179,179.461 288.558 C 180.376 289.031,180.208 288.785,179.222 288.207 C 178.751 287.931,177.947 287.242,177.434 286.675 C 176.922 286.108,176.598 285.824,176.713 286.043 M247.376 286.475 C 246.954 287.014,246.920 287.105,247.248 286.819 C 247.639 286.477,248.156 285.742,248.005 285.742 C 247.974 285.742,247.691 286.072,247.376 286.475 M191.992 287.552 C 190.715 288.766,190.805 288.756,192.327 287.515 C 192.779 287.146,193.194 286.728,193.248 286.586 C 193.387 286.224,193.400 286.214,191.992 287.552 M246.066 288.232 C 245.505 288.911,245.267 289.258,245.363 289.258 C 245.417 289.258,245.696 288.950,245.983 288.574 C 246.515 287.877,246.579 287.613,246.066 288.232 M145.996 289.464 C 146.426 289.667,146.909 289.832,147.070 289.829 C 147.231 289.827,146.924 289.654,146.387 289.444 C 145.164 288.967,144.967 288.977,145.996 289.464 M154.297 289.355 C 154.028 289.509,153.896 289.635,154.004 289.635 C 154.111 289.635,154.419 289.509,154.688 289.355 C 154.956 289.202,155.088 289.076,154.980 289.076 C 154.873 289.076,154.565 289.202,154.297 289.355 M181.641 289.590 C 182.017 289.756,182.896 289.920,183.594 289.955 L 184.863 290.018 183.594 289.851 C 182.896 289.759,182.077 289.588,181.774 289.471 C 180.955 289.153,180.853 289.244,181.641 289.590 M185.891 289.982 C 186.134 290.029,186.485 290.027,186.672 289.978 C 186.859 289.929,186.660 289.891,186.230 289.893 C 185.801 289.895,185.648 289.935,185.891 289.982 M148.486 290.174 C 148.674 290.223,148.982 290.223,149.170 290.174 C 149.358 290.125,149.204 290.084,148.828 290.084 C 148.452 290.084,148.298 290.125,148.486 290.174 M151.025 290.174 C 151.213 290.223,151.521 290.223,151.709 290.174 C 151.897 290.125,151.743 290.084,151.367 290.084 C 150.991 290.084,150.837 290.125,151.025 290.174 M197.217 339.014 C 200.574 339.044,206.067 339.044,209.424 339.014 C 212.781 338.984,210.034 338.959,203.320 338.959 C 196.606 338.959,193.860 338.984,197.217 339.014 " stroke="none" fill="#b41c1c" fill-rule="evenodd"></path></g></svg>